<svg xmlns="http://www.w3.org/2000/svg" viewBox="0 0 500 500"><g id="freepik--background-complete--inject-1"><path d="M82.59,365.75,69.47,366l-6.66.11c-2.23.05-4.47,0-6.7.06h-.44v-.45l-.06-11.19v-.5h.5l13.24.06c4.42,0,8.83.12,13.24.17h.28v.27c0,1.9-.09,3.79-.13,5.65Zm0,0-.14-5.65c0-1.87-.11-3.71-.13-5.54l.27.27c-4.41.05-8.82.16-13.24.17l-13.24.06.5-.5,0,11.19-.45-.45c2.18,0,4.36,0,6.55.06l6.58.11Z" style="fill:#ebebeb"></path><path d="M67.82,379.86l-13.12.28-6.66.11c-2.23.05-4.47,0-6.7.06H40.9v-.45l-.06-11.19v-.5h.5l13.24.06c4.41,0,8.83.12,13.24.17h.28v.27c0,1.9-.08,3.79-.13,5.65Zm0,0-.14-5.65c-.05-1.87-.11-3.71-.13-5.54l.27.27c-4.41.05-8.83.16-13.24.17l-13.24.06.5-.5-.05,11.19-.45-.45c2.18,0,4.36,0,6.55.06l6.58.11Z" style="fill:#ebebeb"></path><path d="M176.59,228.32l-13.13.28-6.66.11c-2.22,0-4.46,0-6.69.06h-.45v-.45l0-11.19v-.5h.51l13.24.07c4.41,0,8.82.11,13.24.16h.27v.27c0,1.9-.09,3.79-.13,5.66Zm0,0-.15-5.65c0-1.86-.11-3.71-.13-5.54l.28.28c-4.42.05-8.83.16-13.24.16l-13.24.06.5-.5-.06,11.19-.44-.44c2.18,0,4.35,0,6.54.05l6.58.11Z" style="fill:#ebebeb"></path><path d="M161.81,242.43l-13.12.28-6.66.11c-2.23.05-4.46,0-6.7.06h-.44v-.45l-.06-11.19v-.5h.5l13.24.07c4.42,0,8.83.11,13.24.16h.28v.27c0,1.9-.09,3.79-.13,5.66Zm0,0-.14-5.65c0-1.86-.11-3.71-.13-5.54l.27.28c-4.41,0-8.82.15-13.24.16l-13.24.06.5-.5-.05,11.19-.45-.44c2.19,0,4.36,0,6.55,0l6.58.11Z" style="fill:#ebebeb"></path><rect x="120.62" y="217.13" width="26.48" height="11.19" style="fill:#ebebeb"></rect><rect x="432.18" y="368.67" width="26.48" height="11.19" style="fill:#ebebeb"></rect><path d="M443.89,67.49l-13.13.27-6.66.12c-2.22,0-4.46,0-6.69.05H417v-.45l0-11.19v-.51h.51l13.24.06c4.41,0,8.82.11,13.24.16h.27v.27c0,1.9-.09,3.78-.13,5.65Zm0,0-.14-5.66c-.05-1.86-.12-3.7-.14-5.53l.28.27c-4.42,0-8.83.16-13.24.16l-13.24.07.5-.5-.06,11.19-.44-.45c2.18,0,4.35,0,6.54.06l6.58.11Z" style="fill:#ebebeb"></path><rect x="432.18" y="70.41" width="26.48" height="11.19" style="fill:#ebebeb"></rect><path d="M82.59,67.49l-13.12.27-6.66.12c-2.23,0-4.47,0-6.7.05h-.44v-.45L55.61,56.3v-.51h.5l13.24.06c4.42,0,8.83.11,13.24.16h.28v.27c0,1.9-.09,3.78-.13,5.65Zm0,0-.14-5.66c0-1.86-.11-3.7-.13-5.53l.27.27c-4.41,0-8.82.16-13.24.16l-13.24.07.5-.5,0,11.19L56.11,67c2.18,0,4.36,0,6.55.06l6.58.11Z" style="fill:#ebebeb"></path><path d="M444.17,262.46l5.5-8.88L447,251.9a2.47,2.47,0,0,1-1.15-2.33,13.65,13.65,0,0,0,.05-1.57,2.48,2.48,0,0,1,1.3-2.25l2.81-1.51L445,235l-2.82,1.52a2.49,2.49,0,0,1-2.59-.17,13.23,13.23,0,0,0-1.33-.82A2.49,2.49,0,0,1,437,233.3l.1-3.19-10.44-.33-.09,3.21a2.49,2.49,0,0,1-1.46,2.16l-.69.35-.66.38a2.51,2.51,0,0,1-2.6,0l-2.73-1.7-5.51,8.88,2.72,1.69a2.45,2.45,0,0,1,1.15,2.33c0,.52-.06,1,0,1.56a2.49,2.49,0,0,1-1.29,2.25l-2.82,1.51,4.94,9.21,2.81-1.52a2.51,2.51,0,0,1,2.6.17,13.82,13.82,0,0,0,1.32.82,2.47,2.47,0,0,1,1.31,2.25l-.1,3.2,10.44.33.1-3.21a2.47,2.47,0,0,1,1.45-2.15l.69-.35c.23-.12.45-.25.67-.38a2.5,2.5,0,0,1,2.61,0Zm-8.84-6.59a8.56,8.56,0,1,1,3.5-11.58A8.55,8.55,0,0,1,435.33,255.87Z" style="fill:#dbdbdb"></path><path d="M152.31,270.77l-3.65-6.33-1.94,1.12a1.73,1.73,0,0,1-1.82-.06,10.14,10.14,0,0,0-1-.55,1.73,1.73,0,0,1-1-1.55v-2.24h-7.32v2.24a1.75,1.75,0,0,1-1,1.55,8.1,8.1,0,0,0-1,.55,1.73,1.73,0,0,1-1.82.06L130,264.44l-3.66,6.33,1.95,1.13a1.73,1.73,0,0,1,.85,1.61c0,.18,0,.36,0,.54s0,.36,0,.54a1.73,1.73,0,0,1-.85,1.6l-1.95,1.13,3.66,6.34,1.94-1.12a1.73,1.73,0,0,1,1.82.06c.31.2.62.38,1,.55a1.75,1.75,0,0,1,1,1.54v2.24H143v-2.24a1.73,1.73,0,0,1,1-1.54c.32-.17.64-.35.94-.55a1.73,1.73,0,0,1,1.82-.06l1.95,1.12,3.65-6.34-1.94-1.12a1.74,1.74,0,0,1-.85-1.61c0-.18,0-.36,0-.54s0-.36,0-.54a1.76,1.76,0,0,1,.85-1.62Zm-7,3.28a6,6,0,1,1-6-6A6,6,0,0,1,145.32,274.05Z" style="fill:#dbdbdb"></path><path d="M85.31,163.32a28.5,28.5,0,1,0,28.49,28.5A28.5,28.5,0,0,0,85.31,163.32Zm0,41.8a13.31,13.31,0,1,1,13.3-13.3A13.3,13.3,0,0,1,85.31,205.12Z" style="fill:#ebebeb"></path><polygon points="90.78 164.5 79.83 164.5 80.43 156.75 90.18 156.75 90.78 164.5" style="fill:#ebebeb"></polygon><polygon points="69.93 168.2 62.18 175.94 57.13 170.03 64.02 163.14 69.93 168.2" style="fill:#ebebeb"></polygon><polygon points="57.79 185.55 57.79 196.51 50.04 195.9 50.04 186.16 57.79 185.55" style="fill:#ebebeb"></polygon><polygon points="61.48 206.41 69.23 214.16 63.32 219.21 56.43 212.32 61.48 206.41" style="fill:#ebebeb"></polygon><polygon points="78.84 218.54 89.8 218.54 89.19 226.3 79.45 226.3 78.84 218.54" style="fill:#ebebeb"></polygon><polygon points="99.7 214.85 107.44 207.1 112.5 213.02 105.61 219.91 99.7 214.85" style="fill:#ebebeb"></polygon><polygon points="111.83 197.5 111.83 186.54 119.59 187.14 119.59 196.89 111.83 197.5" style="fill:#ebebeb"></polygon><polygon points="108.14 176.64 100.39 168.89 106.31 163.84 113.2 170.73 108.14 176.64" style="fill:#ebebeb"></polygon><path d="M376.69,40.27a28.49,28.49,0,1,0,28.5,28.49A28.49,28.49,0,0,0,376.69,40.27Zm0,41.79A13.31,13.31,0,1,1,390,68.76,13.29,13.29,0,0,1,376.69,82.06Z" style="fill:#ebebeb"></path><polygon points="382.17 41.45 371.22 41.45 371.82 33.69 381.57 33.69 382.17 41.45" style="fill:#ebebeb"></polygon><polygon points="361.32 45.14 353.57 52.89 348.51 46.97 355.4 40.08 361.32 45.14" style="fill:#ebebeb"></polygon><polygon points="349.18 62.49 349.18 73.45 341.43 72.85 341.43 63.1 349.18 62.49" style="fill:#ebebeb"></polygon><polygon points="352.87 83.35 360.62 91.1 354.71 96.15 347.82 89.26 352.87 83.35" style="fill:#ebebeb"></polygon><polygon points="370.23 95.49 381.19 95.49 380.58 103.24 370.84 103.24 370.23 95.49" style="fill:#ebebeb"></polygon><polygon points="391.08 91.8 398.83 84.05 403.89 89.96 397 96.85 391.08 91.8" style="fill:#ebebeb"></polygon><polygon points="403.22 74.44 403.22 63.48 410.98 64.09 410.98 73.83 403.22 74.44" style="fill:#ebebeb"></polygon><polygon points="399.53 53.58 391.78 45.84 397.69 40.78 404.59 47.67 399.53 53.58" style="fill:#ebebeb"></polygon></g><g id="freepik--Floor--inject-1"><polygon points="37.62 452.3 90.71 452.06 143.81 451.97 250 451.8 356.19 451.97 409.29 452.06 462.38 452.3 409.29 452.55 356.19 452.63 250 452.8 143.81 452.63 90.71 452.55 37.62 452.3" style="fill:#263238"></polygon></g><g id="freepik--Device--inject-1"><path d="M334.52,70H165.46a17.26,17.26,0,0,0-17.1,17.42v348a17.27,17.27,0,0,0,17.1,17.42H334.52a17.29,17.29,0,0,0,17.12-17.42v-348A17.28,17.28,0,0,0,334.52,70Zm6.42,354.67c0,9.16-6.86,16.57-15.32,16.57H174.38c-8.48,0-15.34-7.41-15.34-16.57V100.63c0-18.66,6.86-19.57,15.34-19.57h30.3c1.76,0,3.2,2,3.2,4.48v1.07c0,5.81,3.18,5.83,7.08,5.83H285c3.94,0,7.1,0,7.1-5.83V85.54c0-2.48,1.42-4.48,3.21-4.48h30.29c8.46,0,15.32,2.48,15.32,19.57Z" style="fill:#263238"></path><path d="M340.94,100.63V424.69c0,9.16-6.86,16.57-15.32,16.57H174.38c-8.48,0-15.34-7.41-15.34-16.57V100.63c0-18.66,6.86-19.57,15.34-19.57h30.3c1.76,0,3.2,2,3.2,4.48v1.07c0,5.81,3.18,5.83,7.08,5.83H285c3.94,0,7.1,0,7.1-5.83V85.54c0-2.48,1.42-4.48,3.21-4.48h30.29C334.08,81.06,340.94,83.54,340.94,100.63Z" style="fill:#fff"></path><path d="M340.94,100.63v36.5H159v-36.5c0-18.66,6.86-19.57,15.34-19.57h30.3c1.76,0,3.2,2,3.2,4.48v1.07c0,5.81,3.18,5.83,7.08,5.83H285c3.94,0,7.1,0,7.1-5.83V85.54c0-2.48,1.42-4.48,3.21-4.48h30.29C334.08,81.06,340.94,83.54,340.94,100.63Z" style="fill:#F7B600"></path><g id="freepik--u5Zjqx--inject-1"><path d="M199.45,88.34l-.29.29-.17.17a3.94,3.94,0,0,0-2.82-1.17,3.9,3.9,0,0,0-2.82,1.17c-.06,0-.11-.11-.16-.16l-.29-.29h0l.37-.33a4.06,4.06,0,0,1,.86-.55,4.56,4.56,0,0,1,1.13-.38l.57-.07h.5l.38,0a4.05,4.05,0,0,1,1,.25,4.58,4.58,0,0,1,.71.33,3.85,3.85,0,0,1,.67.47l.31.27Z" style="fill:#fff"></path><path d="M194.27,89.72c-.15-.15-.3-.31-.46-.46a3.27,3.27,0,0,1,1.88-1,3.32,3.32,0,0,1,2.83.94l-.46.47a2.62,2.62,0,0,0-1.89-.79A2.66,2.66,0,0,0,194.27,89.72Z" style="fill:#fff"></path><path d="M197.6,90.18l-.46.46a1.38,1.38,0,0,0-1.94,0l-.46-.46A2,2,0,0,1,197.6,90.18Z" style="fill:#fff"></path><path d="M196.58,91.06a.41.41,0,0,1-.41.41.41.41,0,0,1-.42-.41.42.42,0,0,1,.42-.42A.41.41,0,0,1,196.58,91.06Z" style="fill:#fff"></path></g><path d="M170.9,89.23a1.21,1.21,0,1,1,1.21,1.2A1.21,1.21,0,0,1,170.9,89.23Z" style="fill:#fff"></path><path d="M174.7,89.23a1.21,1.21,0,1,1,1.21,1.2A1.21,1.21,0,0,1,174.7,89.23Z" style="fill:#fff"></path><path d="M178.5,89.23a1.21,1.21,0,1,1,1.2,1.2A1.21,1.21,0,0,1,178.5,89.23Z" style="fill:#fff"></path><path d="M182.3,89.23a1.21,1.21,0,1,1,1.2,1.2A1.21,1.21,0,0,1,182.3,89.23Z" style="fill:#fff"></path><path d="M186.09,89.23a1.21,1.21,0,1,1,1.21,1.2A1.21,1.21,0,0,1,186.09,89.23Z" style="fill:#fff"></path><path d="M327.3,91.86h-9.82V87.31h9.82Zm-9.32-.5h8.82V87.81H318Z" style="fill:#fff"></path><rect x="318.3" y="88.08" width="6.33" height="3" style="fill:#fff"></rect><rect x="327.3" y="88.37" width="0.87" height="2.43" style="fill:#fff"></rect><polygon points="179.32 128.33 174.09 123.43 179.32 118.53 180.13 119.4 175.83 123.43 180.13 127.47 179.32 128.33" style="fill:#fff"></polygon><path d="M326.32,120.38a1,1,0,1,1-1-1A1,1,0,0,1,326.32,120.38Z" style="fill:#fff"></path><path d="M326.32,124a1,1,0,1,1-1-1A1,1,0,0,1,326.32,124Z" style="fill:#fff"></path><path d="M326.32,127.7a1,1,0,1,1-1-1A1,1,0,0,1,326.32,127.7Z" style="fill:#fff"></path><rect x="188.03" y="117.67" width="123.95" height="12.08" style="opacity:0.1"></rect><path d="M241.55,125.17l-.58.43-1.06-1.4-.39-.51a.76.76,0,0,0,.23-.13.9.9,0,0,0,.29-.38l.41.55Z" style="fill:#fff"></path><path d="M240.42,121.87a1.57,1.57,0,0,0-2.19-.29,1.56,1.56,0,0,0,1.68,2.62,1,1,0,0,0,.22-.14,1.42,1.42,0,0,0,.32-.33A1.56,1.56,0,0,0,240.42,121.87Zm-.67,1.69a.76.76,0,0,1-.23.13.93.93,0,0,1-.91-1.61.94.94,0,0,1,1.31.17,1,1,0,0,1,.12.93A.9.9,0,0,1,239.75,123.56Z" style="fill:#fff"></path><path d="M244.49,124.34a.29.29,0,0,1,.4,0,1.71,1.71,0,0,0,1,.41,1.19,1.19,0,0,0,.68-.2.48.48,0,0,0,.23-.39.34.34,0,0,0,0-.17.48.48,0,0,0-.16-.16,2.26,2.26,0,0,0-.74-.25h0a2.79,2.79,0,0,1-.69-.21,1.09,1.09,0,0,1-.5-.42.84.84,0,0,1-.13-.44,1,1,0,0,1,.43-.79,1.62,1.62,0,0,1,.93-.28,2.12,2.12,0,0,1,1.18.43.27.27,0,0,1,.07.38.27.27,0,0,1-.38.08,1.6,1.6,0,0,0-.87-.34,1,1,0,0,0-.6.18.43.43,0,0,0-.2.34.33.33,0,0,0,0,.15.69.69,0,0,0,.15.14,1.73,1.73,0,0,0,.67.23h0a3.4,3.4,0,0,1,.74.23,1.21,1.21,0,0,1,.54.45.87.87,0,0,1,.13.45,1,1,0,0,1-.46.84,1.69,1.69,0,0,1-1,.3,2.26,2.26,0,0,1-1.37-.53A.3.3,0,0,1,244.49,124.34Z" style="fill:#fff"></path><path d="M248,123.94a1.34,1.34,0,0,1,1.31-1.35,1.29,1.29,0,0,1,1.3,1.25v0a.06.06,0,0,1,0,0,.25.25,0,0,1-.28.22h-1.71a.71.71,0,0,0,.19.35.85.85,0,0,0,.51.25.92.92,0,0,0,.56-.14.31.31,0,0,1,.41,0,.25.25,0,0,1,0,.35,1.38,1.38,0,0,1-1,.35A1.34,1.34,0,0,1,248,123.94Zm.59-.27h1.52a.89.89,0,0,0-.8-.57A.75.75,0,0,0,248.54,123.67Z" style="fill:#fff"></path><path d="M253.69,123.94V125a.29.29,0,0,1-.29.28.28.28,0,0,1-.27-.23,1.26,1.26,0,0,1-1.64-.16,1.43,1.43,0,0,1,0-1.9,1.28,1.28,0,0,1,.92-.4,1.22,1.22,0,0,1,.72.24.28.28,0,0,1,.27-.24.29.29,0,0,1,.29.29Zm-.57,0a.76.76,0,0,0-.21-.55.65.65,0,0,0-.5-.22.63.63,0,0,0-.5.22.76.76,0,0,0-.21.55.8.8,0,0,0,.21.55.66.66,0,0,0,.5.21.67.67,0,0,0,.5-.21A.8.8,0,0,0,253.12,123.94Z" style="fill:#fff"></path><path d="M256.4,122.88a.28.28,0,0,1-.29.28.51.51,0,0,0-.32.1,1,1,0,0,0-.25.26,2.19,2.19,0,0,0-.22.45v1a.29.29,0,0,1-.58,0v-2.12a.29.29,0,0,1,.58,0v0a1.06,1.06,0,0,1,.12-.1,1.11,1.11,0,0,1,.67-.21A.28.28,0,0,1,256.4,122.88Z" style="fill:#fff"></path><path d="M256.78,123.94a1.37,1.37,0,0,1,1.37-1.35,1.39,1.39,0,0,1,.85.3.28.28,0,0,1,.06.39.28.28,0,0,1-.4.06.87.87,0,0,0-.51-.17.77.77,0,1,0,0,1.54.89.89,0,0,0,.51-.17.29.29,0,0,1,.34.46,1.51,1.51,0,0,1-.85.28A1.37,1.37,0,0,1,256.78,123.94Z" style="fill:#fff"></path><path d="M260.64,125a.3.3,0,0,1-.3.3.31.31,0,0,1-.29-.22s0,0,0-.08v-3.17a.29.29,0,0,1,.3-.3.3.3,0,0,1,.3.3v.94a1.22,1.22,0,0,1,.57-.16,1.18,1.18,0,0,1,1.18,1.18V125a.3.3,0,0,1-.6,0v-1.21a.58.58,0,0,0-.58-.58.57.57,0,0,0-.57.58Z" style="fill:#fff"></path><path d="M259.55,85.19H240.44A1.18,1.18,0,0,1,239.26,84h0a1.18,1.18,0,0,1,1.18-1.18h19.11A1.18,1.18,0,0,1,260.73,84h0A1.18,1.18,0,0,1,259.55,85.19Z" style="fill:#fff"></path><rect x="173.66" y="176.38" width="152.65" height="117.29" transform="translate(499.98 470.04) rotate(180)" style="fill:#F7B600"></rect><path d="M190.07,203.87a13.61,13.61,0,1,0,10.68-10.69A13.61,13.61,0,0,0,190.07,203.87Z" style="opacity:0.2"></path><polygon points="215.99 268.9 326.31 268.9 271.15 207.05 215.99 268.9" style="opacity:0.2"></polygon><polygon points="173.66 268.96 264.75 268.96 219.21 228.68 173.66 268.96" style="fill:#F7B600"></polygon><polygon points="173.66 268.96 264.75 268.96 219.21 228.68 173.66 268.96" style="opacity:0.30000000000000004"></polygon><rect x="173.66" y="268.9" width="152.65" height="24.76" style="fill:#F7B600"></rect><rect x="173.66" y="268.9" width="152.65" height="24.76" style="opacity:0.30000000000000004"></rect><rect x="173.66" y="152.55" width="152.65" height="0.25" style="fill:#ebebeb"></rect><rect x="201.84" y="152.42" width="11.47" height="0.5" style="fill:#F7B600"></rect><rect x="201.84" y="147.44" width="11.23" height="1.72" style="fill:#F7B600"></rect><rect x="174.06" y="147.44" width="12.94" height="1.72" style="fill:#dbdbdb"></rect><rect x="231.84" y="147.44" width="15.61" height="1.72" style="fill:#dbdbdb"></rect><rect x="264.98" y="147.44" width="15.61" height="1.72" style="fill:#dbdbdb"></rect><rect x="295.18" y="147.44" width="30.75" height="1.72" style="fill:#dbdbdb"></rect><rect x="222.59" y="165.31" width="54.8" height="1.72" style="fill:#dbdbdb"></rect><rect x="173.32" y="328.76" width="78.55" height="1.72" style="fill:#dbdbdb"></rect><rect x="173.32" y="332.78" width="78.55" height="1.72" style="fill:#dbdbdb"></rect><rect x="173.32" y="336.81" width="78.55" height="1.72" style="fill:#dbdbdb"></rect><rect x="173.32" y="360.44" width="78.55" height="1.72" style="fill:#dbdbdb"></rect><rect x="173.32" y="364.46" width="78.55" height="1.72" style="fill:#dbdbdb"></rect><rect x="173.32" y="368.49" width="49.57" height="1.72" style="fill:#dbdbdb"></rect><rect x="173.32" y="340.84" width="78.55" height="1.72" style="fill:#dbdbdb"></rect><rect x="173.32" y="344.87" width="78.55" height="1.72" style="fill:#dbdbdb"></rect><rect x="173.32" y="348.89" width="78.55" height="1.72" style="fill:#dbdbdb"></rect><rect x="173.32" y="352.92" width="59.54" height="1.72" style="fill:#dbdbdb"></rect><rect x="173.32" y="382.74" width="151.99" height="1.72" style="fill:#dbdbdb"></rect><rect x="173.32" y="386.76" width="151.99" height="1.72" style="fill:#dbdbdb"></rect><rect x="173.32" y="390.79" width="151.99" height="1.72" style="fill:#dbdbdb"></rect><rect x="173.32" y="394.82" width="151.99" height="1.72" style="fill:#dbdbdb"></rect><rect x="173.32" y="398.84" width="89.64" height="1.72" style="fill:#dbdbdb"></rect><path d="M261.28,330.05l32-.08c10.67,0,21.34,0,32,.08-10.67.08-21.34.06-32,.09Z" style="fill:#c7c7c7"></path><path d="M261.28,332.66l32-.08c10.67,0,21.34,0,32,.08-10.67.08-21.34.06-32,.09Z" style="fill:#c7c7c7"></path><path d="M261.28,335.27l32-.08c10.67,0,21.34,0,32,.08-10.67.08-21.34.06-32,.09Z" style="fill:#c7c7c7"></path><path d="M261.28,337.89l32-.09c10.67,0,21.34,0,32,.09-10.67.07-21.34.05-32,.08Z" style="fill:#c7c7c7"></path><path d="M261.28,340.5l32-.09c10.67,0,21.34,0,32,.09-10.67.07-21.34.05-32,.08Z" style="fill:#c7c7c7"></path><path d="M261.28,343.11l32-.09c10.67,0,21.34,0,32,.09-10.67.07-21.34.05-32,.08Z" style="fill:#c7c7c7"></path><path d="M261.28,345.72l32-.09c10.67,0,21.34,0,32,.09-10.67.07-21.34,0-32,.08Z" style="fill:#c7c7c7"></path><path d="M261.28,348.33l32-.09c10.67,0,21.34,0,32,.09-10.67.07-21.34.05-32,.08Z" style="fill:#c7c7c7"></path><path d="M261.28,350.94l32-.09c10.67,0,21.34,0,32,.09-10.67.07-21.34.05-32,.08Z" style="fill:#c7c7c7"></path><path d="M261.28,353.55l32-.09c10.67,0,21.34,0,32,.09-10.67.07-21.34.05-32,.08Z" style="fill:#c7c7c7"></path><path d="M261.28,356.16l32-.08c10.67,0,21.34,0,32,.08-10.67.07-21.34.06-32,.09Z" style="fill:#c7c7c7"></path><path d="M261.28,358.77l32-.08c10.67,0,21.34,0,32,.08-10.67.07-21.34.06-32,.09Z" style="fill:#c7c7c7"></path><path d="M261.28,361.38l32-.08c10.67,0,21.34,0,32,.08-10.67.07-21.34.06-32,.09Z" style="fill:#c7c7c7"></path><path d="M261.28,364l32-.08c10.67,0,21.34,0,32,.08-10.67.08-21.34.06-32,.09Z" style="fill:#c7c7c7"></path><path d="M261.28,366.6l32-.08c10.67,0,21.34,0,32,.08-10.67.08-21.34.06-32,.09Z" style="fill:#c7c7c7"></path><rect x="268.05" y="348.33" width="4.85" height="21.32" style="fill:#F7B600"></rect><rect x="277.06" y="339.31" width="4.85" height="30.34" style="fill:#455a64"></rect><rect x="286.06" y="345.81" width="4.85" height="23.84" style="fill:#a6a6a6"></rect><rect x="295.07" y="337.89" width="4.85" height="31.76" style="fill:#F7B600"></rect><rect x="304.08" y="342.14" width="4.86" height="27.5" style="fill:#455a64"></rect><rect x="313.08" y="357.73" width="4.85" height="11.92" style="fill:#a6a6a6"></rect><path d="M263,328.22l.13,10.36.09,10.35q.09,10.36.09,20.72l-.31-.32h15.57l15.57,0,15.57.11,15.57.19-15.57.18-15.57.11-15.57,0L263,370h-.32v-.31c0-6.91,0-13.81.1-20.72l.09-10.35Z" style="fill:#c7c7c7"></path><rect x="268.05" y="371.84" width="4.85" height="0.44" style="fill:#c7c7c7"></rect><rect x="277.06" y="371.84" width="4.85" height="0.44" style="fill:#c7c7c7"></rect><rect x="286.06" y="371.84" width="4.85" height="0.44" style="fill:#c7c7c7"></rect><rect x="295.07" y="371.84" width="4.85" height="0.44" style="fill:#c7c7c7"></rect><rect x="304.08" y="371.84" width="4.86" height="0.44" style="fill:#c7c7c7"></rect><rect x="313.08" y="371.84" width="4.85" height="0.44" style="fill:#c7c7c7"></rect><rect x="173.32" y="303.68" width="152.61" height="13.56" style="fill:#455a64"></rect><polygon points="182.02 420.33 181.13 420.33 181.13 424.41 179.47 424.41 179.47 422.33 176.53 422.33 176.53 424.41 174.87 424.41 174.87 420.33 173.98 420.33 178 416.18 182.02 420.33" style="fill:#ebebeb"></polygon><rect x="316.31" y="416.18" width="9.69" height="1.38" style="fill:#ebebeb"></rect><rect x="316.31" y="419.6" width="9.69" height="1.39" style="fill:#ebebeb"></rect><rect x="316.31" y="423.03" width="9.69" height="1.39" style="fill:#ebebeb"></rect><polygon points="252.84 420.44 250.08 423.38 247.33 420.44 247.81 419.98 250.08 422.4 252.35 419.98 252.84 420.44" style="fill:#ebebeb"></polygon><path d="M250.08,426.42a5,5,0,1,1,5-5A5,5,0,0,1,250.08,426.42Zm0-9.35a4.35,4.35,0,1,0,4.35,4.34A4.35,4.35,0,0,0,250.08,417.07Z" style="fill:#ebebeb"></path></g><g id="freepik--Plant--inject-1"><path d="M83.05,348.24a41.14,41.14,0,0,1-.8,15.82,43.15,43.15,0,0,1-2.43,7c-1.25,2.89-2.57,5.72-2.25,8.89.3.2-.75.17-.78-.14C68.33,375,57.47,374.1,51,366.22c-3.08-3.73-4.64-8.46-5.38-13.19-.8-5.15-1-10.85.31-15.93,1.12-4.29,3.62-8.43,7.66-10.53s9.62-2,14-.63C77,328.88,81.71,339.09,83.05,348.24Z" style="fill:#F7B600"></path><path d="M87.39,410.89q-1.73-5.77-3.49-11.54c-2.32-7.53-4.74-15-7.41-22.43q-2.4-6.65-5.07-13.18c.31-2.73.43-5.45,1-8.18.71-3.28,1.74-6.45,2.7-9.66.06-.2-.26-.3-.35-.11-1.9,4.42-4.38,10.08-4.44,15.32q-3.09-7.38-6.65-14.56a63.08,63.08,0,0,1,.37-12.12.14.14,0,0,0-.28-.06,42.52,42.52,0,0,0-.83,10.7c-1.82-3.59-3.73-7.14-5.77-10.63-.19-.31-.62,0-.46.32,3.18,6.12,6.13,12.38,8.9,18.71a40.78,40.78,0,0,0-13.27-7.68c-.21-.08-.37.23-.16.32a48.1,48.1,0,0,1,14.35,9.5q3,7,5.69,14c-5.29-5.19-12.54-8.61-19.55-10.44-.24-.06-.3.3-.07.37,8.11,2.44,14.41,7,20.58,12.57q1.08,2.85,2.11,5.72c2.62,7.26,5.09,14.56,7.47,21.89q1.71,5.28,3.36,10.57c1.18,3.79,2.11,7.8,3.65,11.47.14.35.77.27.69-.15A106.18,106.18,0,0,0,87.39,410.89Z" style="fill:#263238"></path><path d="M73.35,340.83a21.12,21.12,0,0,0-3,7.6.06.06,0,0,0,.12,0,65.27,65.27,0,0,1,3.3-7.46C73.86,340.76,73.5,340.61,73.35,340.83Z" style="fill:#263238"></path><path d="M58.26,358.46a22.48,22.48,0,0,0-7.6-2.56c-.07,0-.11.1,0,.13,1.22.5,2.5.86,3.74,1.33s2.45,1.06,3.71,1.49A.22.22,0,0,0,58.26,358.46Z" style="fill:#263238"></path><path d="M54,337.25a15.44,15.44,0,0,0-2.44-1.51.13.13,0,0,0-.14.22,15.53,15.53,0,0,0,2.41,1.56C54,337.61,54.16,337.35,54,337.25Z" style="fill:#263238"></path><path d="M111.58,377c-6.1,1.81-12.22,3.48-18.32,5.27-.53.16-10.83-19.58-7.11-29.76a33.26,33.26,0,0,1,20.72-19.66c4.35-1.47,9.7-2.72,14.3-1.7,4.09.9,7,4.25,8.31,8.09,1.8,5.23,1.2,11.46.22,16.8a29.41,29.41,0,0,1-6,13.7C120.46,373.57,116.33,375.57,111.58,377Z" style="fill:#F7B600"></path><path d="M120.42,358.22a82.47,82.47,0,0,1-12,4.7,50.07,50.07,0,0,0-8,2.89c2.57-5.74,5.4-11.36,8.39-16.93,3.94-1.14,8.08-2.91,11.05-5.7a.17.17,0,0,0-.22-.26c-3.25,2.3-6.83,3.68-10.42,5.23q1.21-2.25,2.46-4.49c.23-.41-.34-.83-.62-.42a129,129,0,0,0-8.66,14.54,67.37,67.37,0,0,1-.63-13.33.09.09,0,0,0-.17,0,44.2,44.2,0,0,0,.15,14.65c-2.14,4.26-4.09,8.63-5.84,13.06-.69-2.66-1.6-5.28-2.2-8a36.77,36.77,0,0,1-.88-11.73c0-.12-.15-.12-.17,0A41.27,41.27,0,0,0,95.29,374c-1,2.67-2,5.34-2.89,8a160.18,160.18,0,0,0-8.09,42.29.26.26,0,0,0,.52,0,210.11,210.11,0,0,1,9.08-41.79c1.77-5.32,3.81-10.48,6-15.54,3.6-1.06,7.18-2.51,10.72-3.73a33.67,33.67,0,0,0,9.88-4.85A.12.12,0,0,0,120.42,358.22Z" style="fill:#263238"></path><path d="M126.1,352.48c-3.73,1.33-7.26,3.18-11,4.53-.17.06-.07.34.11.3,3.94-.81,7.85-2,11-4.62C126.36,352.59,126.23,352.43,126.1,352.48Z" style="fill:#263238"></path><path d="M95.66,344.44c0-.2-.24-.31-.3-.11-1,3.44-1.73,7.08-.74,10.59,0,.14.26.15.27,0C95.07,351.37,94.87,347.93,95.66,344.44Z" style="fill:#263238"></path><path d="M111.06,336.5a9,9,0,0,0-1.61,5.84c0,.13.21.21.25.05.45-2,1.21-3.75,1.81-5.66A.26.26,0,0,0,111.06,336.5Z" style="fill:#263238"></path><path d="M39.08,385.69c1.78,5.67,6,13.51,12.75,13.57,4.36,0,8.75-.47,13.12-.53,4.68-.08,9.37-.07,14,.21.38,0-.56-14-11.81-20.84-3.15-1.92-7-2.52-10.57-3.3a49.19,49.19,0,0,0-12.5-1.3c-2.59.1-4.73.65-5.65,3.3S38.22,383,39.08,385.69Z" style="fill:#F7B600"></path><path d="M43.92,378.59c2.73.71,5.49,1.51,8.23,2.38a29.6,29.6,0,0,0-2.27-2.21c-1.18-1-2.47-1.76-3.74-2.62-.1-.07,0-.27.1-.22a15.46,15.46,0,0,1,6.63,5.28c3.42,1.1,6.8,2.32,10.06,3.66a38.32,38.32,0,0,1,6.45,3.39A26.4,26.4,0,0,0,67,384.19c-1.49-1.93-3.51-3-5.46-4.38a.17.17,0,0,1,.17-.3A16,16,0,0,1,70.52,389a37.76,37.76,0,0,1,6.38,5.79c7.44,8.45,13.3,19.7,13.33,31.17,0,.28-.44.35-.5.07a63.56,63.56,0,0,0-14.19-30.48c-.53-.62-1.07-1.21-1.63-1.79a52.52,52.52,0,0,0-6.15-.45c-2.39,0-4.77.35-7.15.54-3.93.32-8.27.37-11.81-1.61a.16.16,0,0,1,.12-.29c7.9,2.87,16.18-.77,24.09.94a36.88,36.88,0,0,0-11.67-7.53l-.72-.29c-5.07.61-10.42,1.93-15.35.29-.15-.05-.09-.28.06-.24,4.77,1.19,9.34-.31,14.05-.54C54.25,382.6,49,381,43.89,379,43.46,378.87,43.45,378.47,43.92,378.59Z" style="fill:#263238"></path><path d="M41.68,383.58a67.5,67.5,0,0,0,7.37.56c.06,0,.08.09,0,.1a15.27,15.27,0,0,1-7.44-.47A.1.1,0,0,1,41.68,383.58Z" style="fill:#263238"></path><path d="M58.34,378.72A12.15,12.15,0,0,1,62,381.25c.12.12-.05.35-.19.25-.62-.46-1.26-.88-1.9-1.29a18.41,18.41,0,0,1-1.78-1.13C58,378.94,58.14,378.65,58.34,378.72Z" style="fill:#263238"></path><path d="M98.05,397c-.09.18.18.36.29.16h0a.27.27,0,0,0,.17.12,112.81,112.81,0,0,0,13.74,2.39c3.72.33,8,.54,11.26-1.62,4.41-2.92,7.31-10.74,4.93-15.71-2.82-5.9-11.32-2.7-15.59-.6A31.23,31.23,0,0,0,98.05,397Z" style="fill:#F7B600"></path><path d="M94.75,399.7a44.31,44.31,0,0,1,8.2-6.24,28,28,0,0,1,8.32-8.48c.16-.11.3.14.15.26a37.89,37.89,0,0,0-7,7.37,77,77,0,0,1,10.29-4.68,13.78,13.78,0,0,1,5.53-5.54s.11,0,.06.08a22.34,22.34,0,0,0-5,5.24c2.09-.78,4.2-1.51,6.31-2.21.19-.06.26.23.08.3-3.76,1.46-7.6,3-11.32,4.8a43.49,43.49,0,0,0,13.71,0c.13,0,.18.16.06.19a27,27,0,0,1-14.55.22,66.33,66.33,0,0,0-6.9,3.87,17.3,17.3,0,0,1,5.57.45,42.09,42.09,0,0,0,9.8,1.11c.13,0,.16.2,0,.22-5.68,1-11.06-1.6-16.69-.93a43.52,43.52,0,0,0-5.87,4.79A44.2,44.2,0,0,0,87,412.56c-2.37,4.83-3.66,9.95-5.58,14.94a.18.18,0,0,1-.35-.1C82.68,417.56,87.58,406.72,94.75,399.7Z" style="fill:#263238"></path><path d="M111.9,386.21a6.62,6.62,0,0,1,1.45-1.76,5.7,5.7,0,0,1,1.68-1.26c.06,0,.09.06.06.1-.47.53-1.12.91-1.62,1.42s-.93,1.11-1.44,1.61A.09.09,0,0,1,111.9,386.21Z" style="fill:#263238"></path><path d="M121.27,389.27c.85-.21,1.74-.2,2.6-.37a25,25,0,0,0,2.51-.76.1.1,0,0,1,.08.19,8.35,8.35,0,0,1-5.19,1.2C121.14,389.51,121.15,389.3,121.27,389.27Z" style="fill:#263238"></path><polygon points="71.32 415.28 72.06 423.75 74.6 452.37 97.01 452.37 100.17 423.75 101.11 415.28 71.32 415.28" style="fill:#455a64"></polygon><polygon points="71.32 415.28 72.06 423.75 100.17 423.75 101.11 415.28 71.32 415.28" style="fill:#263238"></polygon><rect x="69.1" y="412.97" width="34.23" height="6.88" transform="translate(172.43 832.81) rotate(180)" style="fill:#455a64"></rect></g><g id="freepik--icon-3--inject-1"><rect x="99.07" y="287.66" width="65.83" height="65.83" style="fill:#455a64"></rect><rect x="117.65" y="294.23" width="3" height="27.29" transform="translate(-182.8 174.42) rotate(-45)" style="fill:#F7B600"></rect><polygon points="120.49 297.07 120.42 299.18 110.07 298.8 110.44 309.14 108.34 309.22 107.89 296.62 120.49 297.07" style="fill:#F7B600"></polygon><rect x="131.17" y="306.38" width="27.29" height="3" transform="translate(-175.29 192.58) rotate(-45)" style="fill:#F7B600"></rect><polygon points="155.62 309.22 153.52 309.15 153.9 298.8 143.55 299.18 143.47 297.08 156.08 296.62 155.62 309.22" style="fill:#F7B600"></polygon><rect x="143.32" y="319.61" width="3" height="27.29" transform="translate(-193.23 200.01) rotate(-45)" style="fill:#F7B600"></rect><polygon points="143.47 344.06 143.55 341.96 153.9 342.34 153.52 331.99 155.62 331.92 156.08 344.52 143.47 344.06" style="fill:#F7B600"></polygon><rect x="105.5" y="331.76" width="27.29" height="3" transform="translate(-200.75 181.86) rotate(-45)" style="fill:#F7B600"></rect><polygon points="108.34 331.92 110.44 331.99 110.06 342.34 120.41 341.96 120.49 344.06 107.88 344.52 108.34 331.92" style="fill:#F7B600"></polygon></g><g id="freepik--icon-2--inject-1"><rect x="99.07" y="197.39" width="65.83" height="65.83" style="fill:#455a64"></rect><circle cx="131.98" cy="230.31" r="23.89" style="fill:#fff"></circle><path d="M119,217.75a18.21,18.21,0,0,0-5.3,12.85h-3.28a21.44,21.44,0,0,1,6.23-15.14Z" style="fill:#F7B600"></path><path d="M153.5,230.6h-3.28a18.24,18.24,0,0,0-5.29-12.85l1.19-1.16,1.16-1.13A21.51,21.51,0,0,1,153.5,230.6Z" style="fill:#F7B600"></path><path d="M153.5,230.6h-3.28a18.24,18.24,0,0,0-5.29-12.85l1.19-1.16,1.16-1.13A21.51,21.51,0,0,1,153.5,230.6Z" style="opacity:0.30000000000000004"></path><path d="M147.28,215.46l-1.16,1.13-1.19,1.16a18.2,18.2,0,0,0-13-5.41v-3.29A21.47,21.47,0,0,1,147.28,215.46Z" style="fill:#F7B600"></path><path d="M147.28,215.46l-1.16,1.13-1.19,1.16a18.2,18.2,0,0,0-13-5.41v-3.29A21.47,21.47,0,0,1,147.28,215.46Z" style="opacity:0.2"></path><path d="M132,209.05v3.29A18.16,18.16,0,0,0,119,217.75l-2.35-2.29A21.45,21.45,0,0,1,132,209.05Z" style="fill:#F7B600"></path><path d="M132,209.05v3.29A18.16,18.16,0,0,0,119,217.75l-2.35-2.29A21.45,21.45,0,0,1,132,209.05Z" style="opacity:0.1"></path><path d="M133.43,232.74a2.83,2.83,0,1,1,1-3.88A2.83,2.83,0,0,1,133.43,232.74Z" style="fill:#263238"></path><path d="M130.53,227.87c2.79-1.66,11-3.28,11-3.28s-5.44,6.54-8.14,8.15Z" style="fill:#263238"></path><path d="M132,214a3.6,3.6,0,0,1,.38,1.7,3.65,3.65,0,0,1-.38,1.7,3.76,3.76,0,0,1-.37-1.7A3.71,3.71,0,0,1,132,214Z" style="fill:#263238"></path><path d="M123.66,216.2a3.77,3.77,0,0,1,1.18,1.28,3.65,3.65,0,0,1,.52,1.66,3.64,3.64,0,0,1-1.17-1.28A3.78,3.78,0,0,1,123.66,216.2Z" style="fill:#263238"></path><path d="M117.58,222.28a3.74,3.74,0,0,1,1.66.53,3.67,3.67,0,0,1,1.29,1.17,3.61,3.61,0,0,1-1.66-.52A3.8,3.8,0,0,1,117.58,222.28Z" style="fill:#263238"></path><path d="M115.36,230.6a4,4,0,0,1,3.4,0,4.09,4.09,0,0,1-3.4,0Z" style="fill:#263238"></path><path d="M148.6,230.58a3.72,3.72,0,0,1-1.7.38,3.59,3.59,0,0,1-1.69-.38,4.07,4.07,0,0,1,3.39,0Z" style="fill:#263238"></path><path d="M146.37,222.27a4,4,0,0,1-2.94,1.7,3.64,3.64,0,0,1,1.28-1.17A3.7,3.7,0,0,1,146.37,222.27Z" style="fill:#263238"></path><path d="M140.29,216.19a3.78,3.78,0,0,1-.53,1.66,3.64,3.64,0,0,1-1.17,1.28,3.65,3.65,0,0,1,.52-1.66A3.77,3.77,0,0,1,140.29,216.19Z" style="fill:#263238"></path></g><g id="freepik--icon-1--inject-1"><rect x="99.07" y="107.13" width="65.83" height="65.83" style="fill:#455a64"></rect><g id="freepik--u5zjqx--inject-1"><path d="M157.59,133.13l-2.28,2.27-1.3,1.3a31.11,31.11,0,0,0-44.08,0l-1.23-1.29-2.26-2.27-.07,0v0l.17-.14c1-.86,1.9-1.74,2.89-2.56A35.71,35.71,0,0,1,125,123.14c1.46-.27,3-.41,4.43-.59.5-.06,3.77-.07,3.87-.06,1,.07,2,.12,3,.22a34.44,34.44,0,0,1,8.13,2,36.11,36.11,0,0,1,10.75,6.24c.82.71,1.61,1.45,2.41,2.18Z" style="fill:#fff"></path><path d="M117.18,143.89l-3.61-3.59a25.44,25.44,0,0,1,14.7-7.37c8.55-1.16,15.89,1.43,22.11,7.32l-3.63,3.61a20.93,20.93,0,0,0-29.57,0Z" style="fill:#fff"></path><path d="M143.14,147.49l-3.59,3.6a10.7,10.7,0,0,0-15.15,0l-3.59-3.58A15.7,15.7,0,0,1,143.14,147.49Z" style="fill:#fff"></path><path d="M135.22,154.35A3.25,3.25,0,1,1,132,151.1,3.24,3.24,0,0,1,135.22,154.35Z" style="fill:#fff"></path></g><rect x="98.2" y="138.54" width="67.55" height="3" transform="translate(-60.37 134.34) rotate(-45)" style="fill:#F7B600"></rect></g></svg>